<svg width="18" height="18" viewBox="0 0 18 18" fill="none" xmlns="http://www.w3.org/2000/svg">
<g clip-path="url(#clip0_0_8679)">
<path d="M6.75 2.8125C6.75 1.88086 7.50586 1.125 8.4375 1.125H9.5625C10.4941 1.125 11.25 1.88086 11.25 2.8125V15.1875C11.25 16.1191 10.4941 16.875 9.5625 16.875H8.4375C7.50586 16.875 6.75 16.1191 6.75 15.1875V2.8125ZM0 9.5625C0 8.63086 0.755859 7.875 1.6875 7.875H2.8125C3.74414 7.875 4.5 8.63086 4.5 9.5625V15.1875C4.5 16.1191 3.74414 16.875 2.8125 16.875H1.6875C0.755859 16.875 0 16.1191 0 15.1875V9.5625ZM15.1875 3.375H16.3125C17.2441 3.375 18 4.13086 18 5.0625V15.1875C18 16.1191 17.2441 16.875 16.3125 16.875H15.1875C14.2559 16.875 13.5 16.1191 13.5 15.1875V5.0625C13.5 4.13086 14.2559 3.375 15.1875 3.375Z" fill="black"/>
</g>
<defs>
<clipPath id="clip0_0_8679">
<rect width="18" height="18" fill="white"/>
</clipPath>
</defs>
</svg>
