<svg width="11" height="20" viewBox="0 0 11 20" fill="none" xmlns="http://www.w3.org/2000/svg">
<path d="M9.29792 7.24726C8.62672 6.57194 7.77846 6.07369 6.83138 5.82251V5.89663C6.83138 6.65842 6.21371 7.27608 5.45192 7.27608C4.69014 7.27608 4.06835 6.65842 4.06835 5.89663V5.82663C1.73358 6.44429 0 8.5773 0 11.1015V14.5522C0 17.5499 2.45419 20 5.45192 20C8.44966 20 10.8997 17.5458 10.8997 14.5522V11.0974C10.8997 9.5985 10.2862 8.23552 9.29792 7.24726ZM4.99897 16.0758C4.8672 16.2075 4.69014 16.2858 4.49249 16.2858H3.13774C2.74243 16.2858 2.41713 15.9605 2.41713 15.5651C2.41713 15.3675 2.49948 15.1904 2.62714 15.0587C2.75479 14.9269 2.93597 14.8487 3.13362 14.8487H4.48837C4.88367 14.8487 5.20898 15.174 5.20898 15.5693C5.20898 15.7669 5.13074 15.944 4.99897 16.0758ZM8.55672 16.0758C8.42907 16.2075 8.24789 16.2858 8.05024 16.2858H6.69961C6.30019 16.2858 5.979 15.9605 5.979 15.5651C5.979 15.3675 6.05724 15.1904 6.18901 15.0587C6.31666 14.9269 6.49784 14.8487 6.69549 14.8487H8.04612C8.44554 14.8487 8.76673 15.174 8.76673 15.5693C8.76673 15.7669 8.68849 15.944 8.55672 16.0758ZM9.39675 12.5962C9.39675 13.4898 8.66378 14.2228 7.77023 14.2228H3.42187C2.52419 14.2228 1.79535 13.4898 1.79535 12.5962V11.1056C1.79535 10.2121 2.52419 9.47909 3.42187 9.47909H7.77023C8.66378 9.47909 9.39675 10.2121 9.39675 11.1056V12.5962Z" fill="black"/>
<path d="M5.45166 6.91373C4.89164 6.91373 4.43457 6.45666 4.43457 5.89664V1.01709C4.43457 0.457072 4.89164 0 5.45166 0C6.01167 0 6.46875 0.457072 6.46875 1.01709V5.89664C6.46875 6.45666 6.01167 6.91373 5.45166 6.91373Z" fill="black"/>
</svg>
