<svg width="16" height="18" viewBox="0 0 16 18" fill="none" xmlns="http://www.w3.org/2000/svg">
<g clip-path="url(#clip0_0_8687)">
<path d="M7.875 8.71875C8.42901 8.71875 8.9776 8.60963 9.48945 8.39762C10.0013 8.1856 10.4664 7.87485 10.8581 7.48311C11.2499 7.09136 11.5606 6.62629 11.7726 6.11445C11.9846 5.6026 12.0938 5.05401 12.0938 4.5C12.0938 3.94599 11.9846 3.3974 11.7726 2.88555C11.5606 2.37371 11.2499 1.90864 10.8581 1.51689C10.4664 1.12515 10.0013 0.814395 9.48945 0.602383C8.9776 0.390371 8.42901 0.28125 7.875 0.28125C7.32099 0.28125 6.7724 0.390371 6.26055 0.602383C5.74871 0.814395 5.28364 1.12515 4.89189 1.51689C4.50015 1.90864 4.1894 2.37371 3.97738 2.88555C3.76537 3.3974 3.65625 3.94599 3.65625 4.5C3.65625 5.05401 3.76537 5.6026 3.97738 6.11445C4.1894 6.62629 4.50015 7.09136 4.89189 7.48311C5.28364 7.87485 5.74871 8.1856 6.26055 8.39762C6.7724 8.60963 7.32099 8.71875 7.875 8.71875ZM6.83086 10.6875C3.36797 10.6875 0.5625 13.493 0.5625 16.9559C0.5625 17.5324 1.03008 18 1.60664 18H14.1434C14.7199 18 15.1875 17.5324 15.1875 16.9559C15.1875 13.493 12.382 10.6875 8.91914 10.6875H6.83086Z" fill="black"/>
</g>
<defs>
<clipPath id="clip0_0_8687">
<rect width="15.75" height="18" fill="white"/>
</clipPath>
</defs>
</svg>
